<svg xmlns="http://www.w3.org/2000/svg" width="26" height="26"><defs><linearGradient id="a" x2="0" y1="1"><stop offset="0%" class="color-start" stop-color="#62a8a6"/><stop offset="100%" class="color-stop" stop-color="#6bbb5c"/></linearGradient></defs><path fill="url(#a)" d="M22.3 0H3.7C1.6 0 0 1.6 0 3.7v18.6C0 24.4 1.6 26 3.7 26h18.6c2.1 0 3.7-1.6 3.7-3.7V3.7C26 1.6 24.4 0 22.3 0zM13 20.7c4.3 0 7.8-3.4 7.8-7.5 0-.7-.1-1.5-.3-2.1h2.2v10.6c0 .5-.4 1-1 1H4.3c-.5 0-1-.4-1-1V11.1h2.3c-.2.7-.3 1.4-.3 2.1 0 4.2 3.4 7.5 7.7 7.5zm0-2.9c-2.8 0-5-2.2-5-4.9S10.2 8 13 8s5 2.2 5 4.9-2.2 4.9-5 4.9zm9.7-10.7c0 .6-.5 1.1-1.1 1.1h-2.8c-.6 0-1.1-.5-1.1-1.1V4.4c0-.6.5-1.1 1.1-1.1h2.8c.6 0 1.1.5 1.1 1.1v2.7z"/></svg>