<svg xmlns="http://www.w3.org/2000/svg" xmlns:xlink="http://www.w3.org/1999/xlink" width="29" height="29"><defs><path id="a" d="M0 0h28.6v28.7H0z"/><linearGradient id="c" x2="0" y1="1"><stop offset="0%" class="color-start" stop-color="#62a8a6"/><stop offset="100%" class="color-stop" stop-color="#6bbb5c"/></linearGradient></defs><clipPath id="b"><use xlink:href="#a" overflow="visible"/></clipPath><path clip-path="url(#b)" fill="url(#c)" d="M5.9 19c2.8 3.3 6.1 5.9 10 7.8 1.5.7 3.4 1.5 5.6 1.6h.4c1.5 0 2.6-.5 3.6-1.5.3-.4.7-.8 1.1-1.2.3-.3.6-.5.8-.8 1.2-1.3 1.2-2.9 0-4.2l-3.5-3.5c-.6-.6-1.3-.9-2.1-.9-.7 0-1.5.3-2.1.9l-2.1 2.1-.6-.3c-.2-.1-.5-.2-.6-.4-1.9-1.2-3.6-2.8-5.3-4.8-.8-1.1-1.4-1.9-1.8-2.9.6-.5 1.1-1 1.6-1.5l.5-.5c.6-.6 1-1.4 1-2.1s-.3-1.5-1-2.1L9.7 2.9l-.6-.6c-.4-.4-.8-.8-1.2-1.1-.6-.6-1.3-1-2-1s-1.5.3-2.1.9L1.6 3.3C.8 4.1.4 5.1.3 6.2c-.1 1.4.1 2.9.8 4.7 1 2.8 2.6 5.4 4.8 8.1M1.7 6.3c.1-.8.4-1.4.9-2l2.2-2.2c.3-.3.7-.5 1.1-.5.4 0 .7.2 1.1.5.4.4.8.7 1.2 1.1.1.3.3.5.5.8l1.7 1.7c.4.4.6.7.6 1.1 0 .4-.2.7-.6 1.1l-.5.5C9.4 9 8.8 9.5 8.3 10s-.5 1-.3 1.3c.5 1.1 1.1 2.1 2.1 3.3 1.8 2.2 3.6 3.8 5.6 5.1.3.2.5.3.8.4.2.1.5.2.6.4h.1c.2.1.4.1.6.1.5 0 .8-.3.9-.4l2.2-2.2c.3-.3.7-.5 1.1-.5.4 0 .8.3 1 .5l3.5 3.5c.7.7.7 1.5 0 2.2-.2.3-.5.5-.8.8-.4.4-.8.8-1.2 1.3-.7.7-1.5 1.1-2.5 1.1h-.3c-1.9-.1-3.7-.9-5-1.5-3.6-1.8-6.8-4.3-9.5-7.4-2.2-2.6-3.6-5.1-4.6-7.7-.8-1.5-1-2.8-.9-4"/><path clip-path="url(#b)" fill="url(#c)" stroke="url(#c)" stroke-width=".5" stroke-miterlimit="10" d="M5.9 19c2.8 3.3 6.1 5.9 10 7.8 1.5.7 3.4 1.5 5.6 1.6h.4c1.5 0 2.6-.5 3.6-1.5.3-.4.7-.8 1.1-1.2.3-.3.6-.5.8-.8 1.2-1.3 1.2-2.9 0-4.2l-3.5-3.5c-.6-.6-1.3-.9-2.1-.9-.7 0-1.5.3-2.1.9l-2.1 2.1-.6-.3c-.2-.1-.5-.2-.6-.4-1.9-1.2-3.6-2.8-5.3-4.8-.8-1.1-1.4-1.9-1.8-2.9.6-.5 1.1-1 1.6-1.5l.5-.5c.6-.6 1-1.4 1-2.1s-.3-1.5-1-2.1L9.7 2.9l-.6-.6c-.4-.4-.8-.8-1.2-1.1-.6-.6-1.3-1-2-1s-1.5.3-2.1.9L1.6 3.3C.8 4.1.4 5.1.3 6.2c-.1 1.4.1 2.9.8 4.7 1 2.8 2.6 5.4 4.8 8.1zM1.7 6.3c.1-.8.4-1.4.9-2l2.2-2.2c.3-.3.7-.5 1.1-.5.4 0 .7.2 1.1.5.4.4.8.7 1.2 1.1.1.3.3.5.5.8l1.7 1.7c.4.4.6.7.6 1.1 0 .4-.2.7-.6 1.1l-.5.5C9.4 9 8.8 9.5 8.3 10s-.5 1-.3 1.3c.5 1.1 1.1 2.1 2.1 3.3 1.8 2.2 3.6 3.8 5.6 5.1.3.2.5.3.8.4.2.1.5.2.6.4h.1c.2.1.4.1.6.1.5 0 .8-.3.9-.4l2.2-2.2c.3-.3.7-.5 1.1-.5.4 0 .8.3 1 .5l3.5 3.5c.7.7.7 1.5 0 2.2-.2.3-.5.5-.8.8-.4.4-.8.8-1.2 1.3-.7.7-1.5 1.1-2.5 1.1h-.3c-1.9-.1-3.7-.9-5-1.5-3.6-1.8-6.8-4.3-9.5-7.4-2.2-2.6-3.6-5.1-4.6-7.7-.8-1.5-1-2.8-.9-4z"/></svg>