<svg xmlns="http://www.w3.org/2000/svg" width="23.5" height="28.9"><defs><linearGradient id="a" x2="0" y1="1"><stop offset="0%" class="color-start" stop-color="#62a8a6"/><stop offset="100%" class="color-stop" stop-color="#6bbb5c"/></linearGradient></defs><path class="st17" fill="url(#a)" stroke="url(#a)" stroke-width=".55" stroke-miterlimit="10" d="M11.7 5.9c-3.3 0-5.9 2.7-5.9 5.9s2.7 5.9 5.9 5.9c3.3 0 5.9-2.7 5.9-5.9S15 5.9 11.7 5.9zm0 10.5c-2.5 0-4.5-2-4.5-4.5s2-4.5 4.5-4.5 4.5 2 4.5 4.5c0 2.4-2 4.5-4.5 4.5zm0 0"/><path class="st17" fill="url(#a)" stroke="url(#a)" stroke-width=".55" stroke-miterlimit="10" d="M11.7.3h-.4C5.6.5.9 4.9.3 10.6c-.1 1.1-.1 2.2.2 3.3 0 0 0 .1.1.4.1.7.4 1.5.7 2.2 1.2 2.8 3.8 7.1 9.4 11.7.3.2.7.4 1 .4.4 0 .8-.1 1-.4 5.6-4.6 8.2-8.9 9.3-11.7.3-.7.6-1.5.8-2.3 0-.1.1-.3.1-.4.1-.7.2-1.4.2-2.2C23.2 5.4 18 .3 11.7.3zm9.9 13.3s0 .1-.1.3c-.2.7-.4 1.4-.7 2-1.1 2.6-3.6 6.7-8.9 11.2-.1 0-.1.1-.1.1s-.1 0-.1-.1c-5.4-4.5-7.8-8.5-9-11.2-.3-.6-.5-1.3-.7-2 0-.2-.1-.2-.1-.3-.2-.9-.2-1.9-.1-2.9.5-5 4.6-8.9 9.6-9 5.7-.2 10.4 4.4 10.4 10-.1.7-.1 1.3-.2 1.9zm0 0"/></svg>